<svg width="50" height="50" viewBox="0 0 50 50" fill="none" xmlns="http://www.w3.org/2000/svg">
<path d="M50 25C50 31.6304 47.3661 37.9893 42.6777 42.6777C37.9893 47.3661 31.6304 50 25 50C21.717 50 18.4661 49.3534 15.4329 48.097C12.3998 46.8406 9.64379 44.9991 7.32233 42.6777C2.63392 37.9893 0 31.6304 0 25C0 18.3696 2.63392 12.0107 7.32233 7.32233C12.0107 2.63392 18.3696 0 25 0C28.283 0 31.5339 0.646644 34.5671 1.90301C37.6002 3.15938 40.3562 5.00087 42.6777 7.32233C44.9991 9.64379 46.8406 12.3998 48.097 15.4329C49.3534 18.4661 50 21.717 50 25ZM10 27.5H30L21.25 36.25L24.8 39.8L39.6 25L24.8 10.2L21.25 13.75L30 22.5H10V27.5Z" fill="#A30A0C"/>
</svg>
