<svg width="30" height="30" viewBox="0 0 30 30" fill="none" xmlns="http://www.w3.org/2000/svg">
<path d="M25 23.75V13.125C25 12.9309 24.9548 12.7396 24.868 12.566C24.7812 12.3924 24.6552 12.2414 24.5 12.125L15.75 5.5625C15.5336 5.40022 15.2705 5.3125 15 5.3125C14.7295 5.3125 14.4664 5.40022 14.25 5.5625L5.5 12.125C5.34475 12.2414 5.21875 12.3924 5.13197 12.566C5.04518 12.7396 5 12.9309 5 13.125V23.75C5 24.0815 5.1317 24.3995 5.36612 24.6339C5.60054 24.8683 5.91848 25 6.25 25H11.25C11.5815 25 11.8995 24.8683 12.1339 24.6339C12.3683 24.3995 12.5 24.0815 12.5 23.75V20C12.5 19.6685 12.6317 19.3505 12.8661 19.1161C13.1005 18.8817 13.4185 18.75 13.75 18.75H16.25C16.5815 18.75 16.8995 18.8817 17.1339 19.1161C17.3683 19.3505 17.5 19.6685 17.5 20V23.75C17.5 24.0815 17.6317 24.3995 17.8661 24.6339C18.1005 24.8683 18.4185 25 18.75 25H23.75C24.0815 25 24.3995 24.8683 24.6339 24.6339C24.8683 24.3995 25 24.0815 25 23.75Z" fill="black"/>
<path fill-rule="evenodd" clip-rule="evenodd" d="M13.5 4.5625C13.9327 4.23794 14.4591 4.0625 15 4.0625C15.5409 4.0625 16.0673 4.23794 16.5 4.5625L25.25 11.125C25.5605 11.3579 25.8125 11.6598 25.9861 12.007C26.1596 12.3541 26.25 12.7369 26.25 13.125V23.75C26.25 24.413 25.9866 25.0489 25.5178 25.5178C25.0489 25.9866 24.413 26.25 23.75 26.25H18.75C18.087 26.25 17.4511 25.9866 16.9822 25.5178C16.5134 25.0489 16.25 24.413 16.25 23.75V20H13.75V23.75C13.75 24.413 13.4866 25.0489 13.0178 25.5178C12.5489 25.9866 11.913 26.25 11.25 26.25H6.25C5.58696 26.25 4.95107 25.9866 4.48223 25.5178C4.01339 25.0489 3.75 24.413 3.75 23.75V13.125C3.75 12.7369 3.84036 12.3541 4.01393 12.007C4.1875 11.6598 4.43951 11.3579 4.75 11.125L13.5 4.5625ZM15 6.5625L6.25 13.125V23.75H11.25V20C11.25 19.337 11.5134 18.7011 11.9822 18.2322C12.4511 17.7634 13.087 17.5 13.75 17.5H16.25C16.913 17.5 17.5489 17.7634 18.0178 18.2322C18.4866 18.7011 18.75 19.337 18.75 20V23.75H23.75V13.125L15 6.5625Z" fill="black"/>
</svg>
